<svg xmlns="http://www.w3.org/2000/svg" viewBox="0 0 512 512">
  <rect width="512" height="512" fill="#0f1226"/>
  <g transform="translate(256,266)">
    <!-- wheels -->
    <rect x="-118" y="-150" width="46" height="82" rx="14" fill="#15182e"/>
    <rect x="72" y="-150" width="46" height="82" rx="14" fill="#15182e"/>
    <rect x="-118" y="68" width="46" height="82" rx="14" fill="#15182e"/>
    <rect x="72" y="68" width="46" height="82" rx="14" fill="#15182e"/>
    <!-- chassis -->
    <rect x="-96" y="-190" width="192" height="380" rx="46" fill="#ef4444"/>
    <rect x="-96" y="-190" width="192" height="380" rx="46" fill="none" stroke="#7f1d1d" stroke-width="6"/>
    <!-- racing stripe -->
    <rect x="-20" y="-186" width="40" height="372" fill="#fde68a"/>
    <!-- windshield -->
    <rect x="-62" y="-60" width="124" height="120" rx="26" fill="#0f1226"/>
    <!-- headlights -->
    <rect x="-78" y="-182" width="30" height="20" rx="8" fill="#fef9c3"/>
    <rect x="48" y="-182" width="30" height="20" rx="8" fill="#fef9c3"/>
    <!-- taillights -->
    <rect x="-78" y="162" width="30" height="18" rx="7" fill="#fca5a5"/>
    <rect x="48" y="162" width="30" height="18" rx="7" fill="#fca5a5"/>
  </g>
</svg>
